<?xml version="1.0" encoding="UTF-8"?>
<svg width="179px" height="279px" viewBox="0 0 179 279" version="1.1" xmlns="http://www.w3.org/2000/svg" xmlns:xlink="http://www.w3.org/1999/xlink">
    <!-- Generator: Sketch 52.2 (67145) - http://www.bohemiancoding.com/sketch -->
    <title>Group 46</title>
    <desc>Created with Sketch.</desc>
    <g id="官网" stroke="none" stroke-width="1" fill="none" fill-rule="evenodd">
        <g id="Group-46">
            <rect id="Rectangle" fill="#D8D8D8" opacity="0" x="-4.40536496e-13" y="8.52651283e-14" width="179.21" height="278.84"></rect>
            <rect id="Rectangle" fill="#D8D8D8" opacity="0.01" x="0" y="0" width="1" height="1"></rect>
            <rect id="Rectangle" fill="#D8D8D8" opacity="0.01" x="178" y="0" width="1" height="1"></rect>
            <rect id="Rectangle" fill="#D8D8D8" opacity="0.01" x="0" y="278" width="1" height="1"></rect>
            <rect id="Rectangle" fill="#D8D8D8" opacity="0.01" x="178" y="278" width="1" height="1"></rect>
            <g id="Group-41" transform="translate(1.000000, 59.000000)" fill="#1890FF">
                <path d="M25.8293388,142.418611 L49.5504989,55.5592753 L141.098573,55.5592753 L113.974447,160.988423 L122.988156,160.988423 C126.78587,161.136618 130.502351,159.857768 133.412851,157.401262 C136.012718,155.153948 137.832637,152.132558 138.608598,148.775393 L167.990301,36.188609 L108.081507,36.188609 L112.646461,20.50521 L172.571855,20.50521 L178,0.166844671 L41.2007834,0 L35.7228388,20.4384721 L89.8548914,20.4384721 L85.0077404,36.188609 L33.5482607,36.188609 L0,160.988423 L105.674531,160.988423" id="Fill-276"></path>
                <polyline id="Fill-274" points="24 110 139.114592 110 145 88 29.9519099 88"></polyline>
                <rect id="Rectangle" x="21" y="142" width="101" height="19"></rect>
            </g>
        </g>
    </g>
</svg>